<svg width="1140" height="1438" xmlns="http://www.w3.org/2000/svg" xmlns:xlink="http://www.w3.org/1999/xlink" overflow="hidden"><defs><clipPath id="clip0"><rect x="-4" y="-4" width="1140" height="1438"/></clipPath></defs><g clip-path="url(#clip0)" transform="translate(4 4)"><path d="M388.944 456.5 754.5 456.5 754.5 155.5 96.5001 155.5" stroke="#181717" stroke-width="4.58333" stroke-linecap="butt" stroke-linejoin="miter" stroke-miterlimit="1.27" stroke-opacity="1" fill="none" fill-rule="evenodd"/><path d="M378.5 306.5 378.5 671.819 138.5 671.819 138.5 811.5" stroke="#181717" stroke-width="4.58333" stroke-linecap="butt" stroke-linejoin="miter" stroke-miterlimit="1.27" stroke-opacity="1" fill="none" fill-rule="evenodd"/><path d="M711.5 672.5 378.5 672.5 711.5 672.5Z" stroke="#181717" stroke-width="4.58333" stroke-linecap="butt" stroke-linejoin="miter" stroke-miterlimit="1.27" stroke-opacity="1" fill="none" fill-rule="evenodd"/><path d="M545.5 1317.5 711.5 672.5" stroke="#181717" stroke-width="4.58333" stroke-linecap="butt" stroke-linejoin="miter" stroke-miterlimit="1.27" stroke-opacity="1" fill="none" fill-rule="evenodd"/><path d="M868.5 155.5 868.5 306.5 868.5 155.5Z" stroke="#181717" stroke-width="4.58333" stroke-linecap="butt" stroke-linejoin="miter" stroke-miterlimit="1.27" stroke-opacity="1" fill="none" fill-rule="evenodd"/><path d="M983.5 155.5 983.5 306.5 983.5 155.5Z" stroke="#181717" stroke-width="4.58333" stroke-linecap="butt" stroke-linejoin="miter" stroke-miterlimit="1.27" stroke-opacity="1" fill="none" fill-rule="evenodd"/><path d="M1133.5 0.499836 1133.5 1428.5 0.499836 1428.5 0.499836 4.81546 1133.5 0.499836Z" stroke="#181717" stroke-width="4.58333" stroke-linecap="butt" stroke-linejoin="miter" stroke-miterlimit="1.27" stroke-opacity="1" fill="none" fill-rule="evenodd"/><path d="M1109.5 1428.5 0.499836 1428.5 1109.5 1428.5Z" stroke="#181717" stroke-width="4.58333" stroke-linecap="butt" stroke-linejoin="miter" stroke-miterlimit="1.27" stroke-opacity="1" fill="none" fill-rule="evenodd"/></g></svg>